<?xml version="1.0" encoding="UTF-8"?>
<svg id="Layer_2" data-name="Layer 2" xmlns="http://www.w3.org/2000/svg" viewBox="0 0 37.33 27.33">
  <defs>
    <style>
      .cls-1 {
        fill: #363431;
      }
    </style>
  </defs>
  <g id="Karaoke">
    <g id="Layer_13" data-name="Layer 13">
      <g>
        <path class="cls-1" d="M21.4,19.63L12.38,1.3c-.11-.23-.39-.32-.62-.21L.26,6.75c-.23.11-.32.39-.21.62l9.02,18.33c.11.23.39.32.61.21l11.52-5.66c.22-.11.32-.39.21-.62ZM2.36,8.05L11.5,3.55c.23-.11.5-.02.61.21l.64,1.29c.11.23.02.5-.21.62L3.4,10.17c-.23.11-.5.02-.61-.21l-.64-1.3c-.11-.23-.02-.5.21-.61ZM12.05,21.12c-2.79,0-5.04-2.25-5.04-5.04s2.25-5.03,5.04-5.03,5.03,2.25,5.03,5.03-2.25,5.04-5.03,5.04Z"/>
        <path class="cls-1" d="M34.82,11.12l-4.55,9.52c-.09.19-.29.29-.5.25l-2.11-.39c-.37.26-.98.81-1.09,1.38-.06.25,0,.48.17.72.3.42,1.03.42,1.81.42,1.04,0,2.47,0,2.89,1.43.31,1.02-.03,1.65-.37,1.99-.63.66-1.83.88-3.13.88-2.17,0-4.63-.61-5.33-.78-.31-.08-.49-.4-.41-.7.08-.31.39-.49.7-.41,2.5.65,6.45,1.14,7.35.22.08-.08.27-.29.1-.88-.17-.55-.69-.61-1.81-.61-.98,0-2.09,0-2.73-.89-.35-.5-.48-1.06-.38-1.62.11-.57.46-1.05.8-1.43l-1.36-.25c-.23-.04-.39-.26-.37-.49l1.02-10.93c0-.07,0-.13-.03-.2-.13-.33-.23-.67-.3-1.04-.65-3.32,1.51-6.54,4.84-7.19,3.32-.66,6.54,1.5,7.19,4.83.46,2.35-.5,4.67-2.27,6.02-.05.04-.1.09-.12.15Z"/>
      </g>
    </g>
  </g>
</svg>