<?xml version="1.0" encoding="UTF-8"?>
<svg id="Layer_2" data-name="Layer 2" xmlns="http://www.w3.org/2000/svg" viewBox="0 0 37.33 24.95">
  <defs>
    <style>
      .cls-1 {
        fill: #363431;
      }
    </style>
  </defs>
  <g id="Navigation_location" data-name="Navigation/location">
    <g id="Layer_15" data-name="Layer 15">
      <g>
        <path class="cls-1" d="M37.33,14.68v4.53c0,.22-.18.4-.4.4h-2.27l-2.55,5.11c-.07.14-.21.23-.36.23H5.58c-.15,0-.29-.09-.36-.23l-2.56-5.11H.4c-.22,0-.4-.18-.4-.4v-4.53c0-.22.18-.4.4-.4h36.53c.22,0,.4.18.4.4Z"/>
        <path class="cls-1" d="M2.66,14.38s-.84-2.86,2.67-2.2c0,0-.48-3.13,2.67-2.67,0,0-1.06-2.92,2.67-2.67,0,0-.63-3.1,2.67-2.67,0,0,.18-2.83,2.67-2.67,0,0,1.13-1.44,2.67,0,0,0,1.05-1.69,2.67,0,0,0,2.12,0,2.67,2.67,0,0,2.67,0,2.67,2.67,0,0,3.11-.41,2.67,2.67,0,0,2.91-.3,2.67,2.67,0,0,3.34-.29,2.67,2.2H2.66Z"/>
        <path class="cls-1" d="M12.21,6.35l-6.23-1.05c-.13.79-.88,1.32-1.67,1.19-.79-.13-1.32-.88-1.19-1.67.1-.57.51-1.01,1.03-1.14-.44-.3-.69-.86-.59-1.42.13-.8.88-1.32,1.67-1.19s1.32.88,1.19,1.67l6.22,1.05C13.81,1.13,17.1-.47,20.61.12c4.02.68,6.82,3.99,6.25,7.39-.57,3.39-4.31,5.6-8.33,4.91-3.51-.59-6.09-3.18-6.31-6.07Z"/>
      </g>
    </g>
  </g>
</svg>