<?xml version="1.0" encoding="UTF-8"?>
<svg id="Layer_2" data-name="Layer 2" xmlns="http://www.w3.org/2000/svg" viewBox="0 0 24.32 35.08">
  <defs>
    <style>
      .cls-1 {
        fill: #363431;
      }
    </style>
  </defs>
  <g id="Reservation">
    <g>
      <path class="cls-1" d="M10.97,8.34c.16.23.11.54-.12.7l-4.58,3.32c-.09.06-.19.1-.29.1-.15,0-.3-.07-.4-.21l-1.43-1.93c-.16-.22-.11-.54.11-.7.22-.16.54-.12.7.11l.13.17,1,1.36,3.22-2.33.96-.7c.22-.16.53-.11.7.11Z"/>
      <path class="cls-1" d="M15.6,0H.4c-.22,0-.4.18-.4.4v23.19c0,.23.18.41.4.41h15.2c.22,0,.4-.18.4-.41V.4c0-.22-.18-.4-.4-.4ZM13.33,20.93c0,.22-.18.4-.4.4H3.07c-.22,0-.4-.18-.4-.4v-3.34c0-.22.18-.4.4-.4h9.86c.22,0,.4.18.4.4v3.34ZM8,15.74c-3.01,0-5.45-2.44-5.45-5.44s2.44-5.45,5.45-5.45,5.44,2.44,5.44,5.45-2.44,5.44-5.44,5.44Z"/>
      <path class="cls-1" d="M8.67,26.66s-4.58-3.34-5.6,0c0,0-.66,2,2.26,2.67,0,0,3.48.07,5.33,2.67,0,0,1.02,1.71,2.67,2.67,1.65.95,9.23.37,10.67-2.67,0,0,.82-1.66-.17-5.33-.99-3.68-2.43-4.31-2.43-4.31,0,0-2.34-.74-2.74,1.01,0,0-2.41-1.02-2.92,1.02,0,0-2.75-.39-2.75,1.7l-3.77-7.91c-.93-1.29-2.67-.21-2.56.44,0,.02,2,8.06,2,8.06Z"/>
    </g>
  </g>
</svg>